<?xml version="1.0" encoding="utf-8"?>
<!-- Generator: Adobe Illustrator 21.0.0, SVG Export Plug-In . SVG Version: 6.00 Build 0)  -->
<svg version="1.1" id="drawHere" xmlns="http://www.w3.org/2000/svg" xmlns:xlink="http://www.w3.org/1999/xlink" x="0px" y="0px"
	 viewBox="0 0 900 600" style="enable-background:new 0 0 900 600;" xml:space="preserve">
<style type="text/css">
	.st0{fill:none;stroke:#000000;stroke-miterlimit:10;}
</style>
<path id="grid0" class="st0" d="M131,220h676c1.1,0,2,0.9,2,2v296c0,1.1-0.9,2-2,2H131c-1.1,0-2-0.9-2-2V222
	C129,220.9,129.9,220,131,220z"/>
<path id="grid1" class="st0" d="M141,450h216c1.1,0,2,0.9,2,2v56c0,1.1-0.9,2-2,2H141c-1.1,0-2-0.9-2-2v-56
	C139,450.9,139.9,450,141,450z"/>
<path id="grid2" class="st0" d="M411,450h166c1.1,0,2,0.9,2,2v56c0,1.1-0.9,2-2,2H411c-1.1,0-2-0.9-2-2v-56
	C409,450.9,409.9,450,411,450z"/>
<path id="grid3" class="st0" d="M621,450h176c1.1,0,2,0.9,2,2v56c0,1.1-0.9,2-2,2H621c-1.1,0-2-0.9-2-2v-56
	C619,450.9,619.9,450,621,450z"/>
<path id="gridh10" class="st0" d="M141,420h656c1.1,0,2,0.9,2,2v16c0,1.1-0.9,2-2,2H141c-1.1,0-2-0.9-2-2v-16
	C139,420.9,139.9,420,141,420z"/>
<path id="gridimg3" class="st0" d="M141,230h156c1.1,0,2,0.9,2,2v176c0,1.1-0.9,2-2,2H141c-1.1,0-2-0.9-2-2V232
	C139,230.9,139.9,230,141,230z"/>
<path id="gridimg4" class="st0" d="M331,230h136c1.1,0,2,0.9,2,2v116c0,1.1-0.9,2-2,2H331c-1.1,0-2-0.9-2-2V232
	C329,230.9,329.9,230,331,230z"/>
<path id="gridimg5" class="st0" d="M501,230h176c1.1,0,2,0.9,2,2v156c0,1.1-0.9,2-2,2H501c-1.1,0-2-0.9-2-2V232
	C499,230.9,499.9,230,501,230z"/>
<path id="gridimg7" class="st0" d="M711,230h86c1.1,0,2,0.9,2,2v176c0,1.1-0.9,2-2,2h-86c-1.1,0-2-0.9-2-2V232
	C709,230.9,709.9,230,711,230z"/>
</svg>
