<?xml version="1.0" encoding="utf-8"?>
<!-- Generator: Adobe Illustrator 21.0.0, SVG Export Plug-In . SVG Version: 6.00 Build 0)  -->
<svg version="1.1" id="drawHere" xmlns="http://www.w3.org/2000/svg" xmlns:xlink="http://www.w3.org/1999/xlink" x="0px" y="0px"
	 viewBox="0 0 900 600" style="enable-background:new 0 0 900 600;" xml:space="preserve">
<style type="text/css">
	.st0{fill:none;stroke:#000000;stroke-miterlimit:10;}
</style>
<path id="grid0" class="st0" d="M81,220h416c1.1,0,2,0.9,2,2v336c0,1.1-0.9,2-2,2H81c-1.1,0-2-0.9-2-2V222C79,220.9,79.9,220,81,220
	z"/>
<path id="grid1" class="st0" d="M541,220h206c1.1,0,2,0.9,2,2v336c0,1.1-0.9,2-2,2H541c-1.1,0-2-0.9-2-2V222
	C539,220.9,539.9,220,541,220z"/>
<path id="grid2" class="st0" d="M371,230h46c1.1,0,2,0.9,2,2v236c0,1.1-0.9,2-2,2h-46c-1.1,0-2-0.9-2-2V232
	C369,230.9,369.9,230,371,230z"/>
<path id="grid3" class="st0" d="M91,480h166c1.1,0,2,0.9,2,2v66c0,1.1-0.9,2-2,2H91c-1.1,0-2-0.9-2-2v-66C89,480.9,89.9,480,91,480z
	"/>
<path id="grid4" class="st0" d="M271,480h216c1.1,0,2,0.9,2,2v66c0,1.1-0.9,2-2,2H271c-1.1,0-2-0.9-2-2v-66
	C269,480.9,269.9,480,271,480z"/>
<path id="grid5" class="st0" d="M701,260h36c1.1,0,2,0.9,2,2v166c0,1.1-0.9,2-2,2h-36c-1.1,0-2-0.9-2-2V262
	C699,260.9,699.9,260,701,260z"/>
<path id="grid6" class="st0" d="M551,480h186c1.1,0,2,0.9,2,2v66c0,1.1-0.9,2-2,2H551c-1.1,0-2-0.9-2-2v-66
	C549,480.9,549.9,480,551,480z"/>
<path id="gridh10" class="st0" d="M91,440h266c1.1,0,2,0.9,2,2v26c0,1.1-0.9,2-2,2H91c-1.1,0-2-0.9-2-2v-26
	C89,440.9,89.9,440,91,440z"/>
<path id="gridh11" class="st0" d="M551,230h186c1.1,0,2,0.9,2,2v16c0,1.1-0.9,2-2,2H551c-1.1,0-2-0.9-2-2v-16
	C549,230.9,549.9,230,551,230z"/>
<path id="gridh12" class="st0" d="M551,440h186c1.1,0,2,0.9,2,2v26c0,1.1-0.9,2-2,2H551c-1.1,0-2-0.9-2-2v-26
	C549,440.9,549.9,440,551,440z"/>
<path id="gridimg0" class="st0" d="M91,230h266c1.1,0,2,0.9,2,2v196c0,1.1-0.9,2-2,2H91c-1.1,0-2-0.9-2-2V232
	C89,230.9,89.9,230,91,230z"/>
<path id="gridimg1" class="st0" d="M431,230h56c1.1,0,2,0.9,2,2v36c0,1.1-0.9,2-2,2h-56c-1.1,0-2-0.9-2-2v-36
	C429,230.9,429.9,230,431,230z"/>
<path id="gridimg2" class="st0" d="M431,280h56c1.1,0,2,0.9,2,2v36c0,1.1-0.9,2-2,2h-56c-1.1,0-2-0.9-2-2v-36
	C429,280.9,429.9,280,431,280z"/>
<path id="gridimg3" class="st0" d="M431,330h56c1.1,0,2,0.9,2,2v36c0,1.1-0.9,2-2,2h-56c-1.1,0-2-0.9-2-2v-36
	C429,330.9,429.9,330,431,330z"/>
<path id="gridimg4" class="st0" d="M431,380h56c1.1,0,2,0.9,2,2v36c0,1.1-0.9,2-2,2h-56c-1.1,0-2-0.9-2-2v-36
	C429,380.9,429.9,380,431,380z"/>
<path id="gridimg5" class="st0" d="M431,430h56c1.1,0,2,0.9,2,2v36c0,1.1-0.9,2-2,2h-56c-1.1,0-2-0.9-2-2v-36
	C429,430.9,429.9,430,431,430z"/>
<path id="gridimg6" class="st0" d="M551,260h136c1.1,0,2,0.9,2,2v166c0,1.1-0.9,2-2,2H551c-1.1,0-2-0.9-2-2V262
	C549,260.9,549.9,260,551,260z"/>
</svg>
