<svg xmlns="http://www.w3.org/2000/svg" width="42.8" height="42.8" viewBox="0 0 42.8 42.8">
  <title>Asset 3</title>
  <g id="5b0d57cd-8872-4d55-abaf-44133966f300" data-name="Layer 2">
    <g id="fb58db22-635b-459e-b4f3-84f8221bf32e" data-name="drawHere">
      <g>
        <g>
          <rect x="11.37" y="11.01" width="20.66" height="20.82" fill="#fff"/>
          <g>
            <polyline points="32.02 30.8 32.02 31.84 30.99 31.84" fill="none" stroke="#fff" stroke-miterlimit="10" stroke-width="2.07"/>
            <line x1="28.92" y1="31.84" x2="13.44" y2="31.84" fill="none" stroke="#fff" stroke-miterlimit="10" stroke-width="2.07" stroke-dasharray="2.06 2.06"/>
            <polyline points="12.4 31.84 11.37 31.84 11.37 30.8" fill="none" stroke="#fff" stroke-miterlimit="10" stroke-width="2.07"/>
            <line x1="11.37" y1="28.72" x2="11.37" y2="13.09" fill="none" stroke="#fff" stroke-miterlimit="10" stroke-width="2.07" stroke-dasharray="2.08 2.08"/>
            <polyline points="11.37 12.05 11.37 11.02 12.4 11.02" fill="none" stroke="#fff" stroke-miterlimit="10" stroke-width="2.07"/>
            <line x1="14.47" y1="11.01" x2="29.95" y2="11.01" fill="none" stroke="#fff" stroke-miterlimit="10" stroke-width="2.07" stroke-dasharray="2.06 2.06"/>
            <polyline points="30.99 11.02 32.02 11.02 32.02 12.05" fill="none" stroke="#fff" stroke-miterlimit="10" stroke-width="2.07"/>
            <line x1="32.02" y1="14.13" x2="32.02" y2="29.76" fill="none" stroke="#fff" stroke-miterlimit="10" stroke-width="2.07" stroke-dasharray="2.08 2.08"/>
          </g>
        </g>
        <g>
          <polyline points="32.02 30.8 32.02 31.84 30.99 31.84" fill="none" stroke="#000" stroke-miterlimit="10" stroke-width="2.07"/>
          <line x1="28.92" y1="31.84" x2="13.44" y2="31.84" fill="none" stroke="#000" stroke-miterlimit="10" stroke-width="2.07" stroke-dasharray="2.06 2.06"/>
          <polyline points="12.4 31.84 11.37 31.84 11.37 30.8" fill="none" stroke="#000" stroke-miterlimit="10" stroke-width="2.07"/>
          <line x1="11.37" y1="28.72" x2="11.37" y2="13.09" fill="none" stroke="#000" stroke-miterlimit="10" stroke-width="2.07" stroke-dasharray="2.08 2.08"/>
          <polyline points="11.37 12.05 11.37 11.02 12.4 11.02" fill="none" stroke="#000" stroke-miterlimit="10" stroke-width="2.07"/>
          <line x1="14.47" y1="11.01" x2="29.95" y2="11.01" fill="none" stroke="#000" stroke-miterlimit="10" stroke-width="2.07" stroke-dasharray="2.06 2.06"/>
          <polyline points="30.99 11.02 32.02 11.02 32.02 12.05" fill="none" stroke="#000" stroke-miterlimit="10" stroke-width="2.07"/>
          <line x1="32.02" y1="14.13" x2="32.02" y2="29.76" fill="none" stroke="#000" stroke-miterlimit="10" stroke-width="2.07" stroke-dasharray="2.08 2.08"/>
        </g>
        <path d="M13.89,9.23c.45,0,.86,0,1.26,0a9.6,9.6,0,0,1,2.12.19c.56,0,1.26-.11,1.82-.11.85,0,1.64.11,1.64,1.35,0,1,.19,2.44-.82,2.44a.71.71,0,0,1-.37-.11c-.19,0-.37.07-.56.07h-.41c-.3,0-.74.08-1.3.08a6.71,6.71,0,0,1-1.9-.23c-.15,0-.3,0-.41,0H13.48a1.73,1.73,0,0,0-.63.07A5.15,5.15,0,0,1,12.92,14c0,1-.11,2.06-.11,3,0,.22,0,.45,0,.64,0,.37,0,.75,0,1.12s.07.64.07.94v.64c0,.86-2.08.6-2.19.6-.89,0-1.6-.3-1.6-1.09a5.07,5.07,0,0,0,.19-1.16c-.07-.79-.3-1.5-.3-2.1,0-.75.3-1.16.3-1.65,0-.3-.11-.56-.11-.9a8.18,8.18,0,0,1,0-.94c-.48,0-1-.08-1.52-.08s-.59.15-1,.15c-1.41,0-1.86-.26-2.71-.26-.33,0-.67.08-1,.08-.67,0-1.56-.19-1.56-1a6,6,0,0,1,.19-.9c0-.07-.15-.26-.15-.41s.11-.22.11-.37-.07-.22-.07-.34c0-.49.41-.6.89-.6.3,0,.56.08.89.08.52,0,1.11-.11,1.71-.11,1,0,2.27.11,3,.11H9.09c0-.6,0-1.16,0-1.76,0-.3,0-.67,0-1,0-.6.19-1.12.19-1.5,0-.71-.15-1.39-.15-2.1,0-.11,0-.26,0-.37a2,2,0,0,0-.07-.41c0-.45.11-.79.59-.79.19,0,.37.15.56.15.45,0,.82-.19,1.34-.19A1.24,1.24,0,0,1,13,2.49c0,.34-.15.45-.15.82s0,.79,0,1.2,0,1,0,1.61c0,.86,0,1.72,0,2.4a3.29,3.29,0,0,0-.07.6v.11Z" fill="#fff" stroke="#000" stroke-miterlimit="10" stroke-width="2.8"/>
        <path d="M34.54,29.71c.45,0,.86,0,1.26,0a9.6,9.6,0,0,1,2.12.19c.56,0,1.26-.11,1.82-.11.85,0,1.64.11,1.64,1.35,0,1,.19,2.44-.82,2.44a.71.71,0,0,1-.37-.11c-.19,0-.37.07-.56.07h-.41c-.3,0-.74.08-1.3.08a6.71,6.71,0,0,1-1.9-.23c-.15,0-.3,0-.41,0H34.14a1.73,1.73,0,0,0-.63.07,5.15,5.15,0,0,1,.07,1.09c0,1-.11,2.06-.11,3,0,.22,0,.45,0,.64,0,.37,0,.75,0,1.12s.07.64.07.94v.64c0,.86-2.08.6-2.19.6-.89,0-1.6-.3-1.6-1.09a5.07,5.07,0,0,0,.19-1.16c-.07-.79-.3-1.5-.3-2.1,0-.75.3-1.16.3-1.65,0-.3-.11-.56-.11-.9a8.18,8.18,0,0,1,0-.94c-.48,0-1-.08-1.52-.08s-.59.15-1,.15c-1.41,0-1.86-.26-2.71-.26-.33,0-.67.08-1,.08-.67,0-1.56-.19-1.56-1a6,6,0,0,1,.19-.9c0-.07-.15-.26-.15-.41s.11-.22.11-.37-.07-.22-.07-.34c0-.49.41-.6.89-.6.3,0,.56.08.89.08.52,0,1.11-.11,1.71-.11,1,0,2.27.11,3,.11h1.15c0-.6,0-1.16,0-1.76,0-.3,0-.67,0-1,0-.6.19-1.12.19-1.5,0-.71-.15-1.39-.15-2.1,0-.11,0-.26,0-.37a2,2,0,0,0-.07-.41c0-.45.11-.79.59-.79.19,0,.37.15.56.15.45,0,.82-.19,1.34-.19A1.24,1.24,0,0,1,33.62,23c0,.34-.15.45-.15.82s0,.79,0,1.2,0,1,0,1.61c0,.86,0,1.72,0,2.4a3.29,3.29,0,0,0-.07.6v.11Z" fill="#fff" stroke="#000" stroke-miterlimit="10" stroke-width="2.8"/>
      </g>
    </g>
  </g>
</svg>
